<?xml version="1.0" encoding="UTF-8"?>
<svg id="Calque_1" data-name="Calque 1" xmlns="http://www.w3.org/2000/svg" viewBox="0 0 520 520">
  <defs>
    <style>
      .cls-1 {
        fill: #fff;
      }

      .cls-1, .cls-2 {
        stroke-width: 0px;
      }

      .cls-2 {
        fill: #039;
      }
    </style>
  </defs>
  <rect class="cls-2" width="520" height="520" rx="47.58" ry="47.58"/>
  <g>
    <path class="cls-1" d="M196.92,288.16c-5.41-3.9-13.29-6.24-23.63-7.02-3.61-.39-6.17-.97-7.68-1.75-1.51-.78-2.27-1.9-2.27-3.37,0-3.51,3.71-5.27,11.12-5.27s14,1.56,19.46,4.68l8.92-15.36c-3.71-2.44-8.12-4.34-13.24-5.71-5.12-1.36-10.51-2.05-16.17-2.05-9.95,0-17.85,2.12-23.7,6.37-5.85,4.24-8.78,9.98-8.78,17.19,0,6.63,2.71,12,8.12,16.09,5.41,4.1,12.7,6.39,21.88,6.88,4.1.29,7.02.88,8.78,1.76,1.76.88,2.63,2.19,2.63,3.95,0,3.41-3.17,5.12-9.51,5.12-4.59,0-9.19-.58-13.83-1.75-4.63-1.17-8.71-2.83-12.22-4.97l-8.78,15.8c9.46,6.44,20.58,9.66,33.36,9.66,10.54,0,18.78-2.12,24.73-6.37,5.95-4.24,8.92-10.07,8.92-17.48,0-7.02-2.71-12.49-8.12-16.39Z"/>
    <path class="cls-1" d="M278.53,257.5c-5.27-3.17-11.27-4.75-18-4.75-9.95,0-17.95,3.32-24,9.95l-1.46-8.49h-19.9v103.59h22.97v-38.34c5.95,5.66,13.41,8.49,22.39,8.49,6.73,0,12.73-1.58,18-4.75,5.27-3.17,9.36-7.61,12.29-13.32,2.93-5.71,4.39-12.22,4.39-19.53s-1.46-13.83-4.39-19.53c-2.92-5.71-7.02-10.14-12.29-13.32ZM267.56,303.6c-3.22,3.36-7.36,5.05-12.44,5.05s-9.2-1.7-12.37-5.12c-3.17-3.41-4.75-7.8-4.75-13.17s1.58-9.75,4.75-13.17c3.17-3.41,7.29-5.12,12.37-5.12s9.22,1.68,12.44,5.05c3.22,3.36,4.83,7.78,4.83,13.24s-1.61,9.88-4.83,13.24Z"/>
    <path class="cls-1" d="M363.54,257.07c-5.76-2.97-12.58-4.46-20.49-4.46s-14.48,1.59-20.34,4.76c-5.85,3.17-10.41,7.63-13.68,13.39-3.27,5.76-4.9,12.34-4.9,19.75s1.66,14.39,4.97,20.04c3.31,5.66,8.05,10.02,14.19,13.1,6.15,3.07,13.41,4.61,21.8,4.61,6.34,0,12.31-1.02,17.92-3.07,5.61-2.05,10.46-4.97,14.56-8.78l-12-12.87c-2.44,1.95-5.36,3.46-8.78,4.53-3.41,1.08-6.93,1.61-10.53,1.61-5.17,0-9.42-1.14-12.73-3.44-3.32-2.29-5.32-5.29-6-9h53.11c.49-3.41.73-6.29.73-8.63,0-7.22-1.54-13.54-4.61-18.95-3.07-5.41-7.49-9.61-13.24-12.58ZM327.69,284.06c.39-4.19,2.02-7.46,4.9-9.8,2.88-2.34,6.61-3.51,11.2-3.51s8.41,1.17,11.19,3.51c2.78,2.34,4.32,5.61,4.61,9.8h-31.9Z"/>
    <g>
      <path class="cls-1" d="M115.39,167.1c-5.27-3.17-11.27-4.75-18-4.75-9.95,0-17.95,3.32-24,9.95l-1.46-8.49h-19.9v103.59h22.97v-38.34c5.95,5.66,13.41,8.49,22.39,8.49,6.73,0,12.73-1.58,18-4.75,5.27-3.17,9.36-7.61,12.29-13.32,2.93-5.71,4.39-12.22,4.39-19.53s-1.46-13.83-4.39-19.53c-2.93-5.71-7.02-10.14-12.29-13.32ZM104.42,213.19c-3.22,3.36-7.37,5.05-12.44,5.05s-9.19-1.7-12.36-5.12c-3.17-3.41-4.76-7.8-4.76-13.17s1.58-9.75,4.76-13.17c3.17-3.41,7.29-5.12,12.36-5.12s9.22,1.68,12.44,5.05c3.22,3.36,4.83,7.78,4.83,13.24s-1.61,9.88-4.83,13.24Z"/>
      <path class="cls-1" d="M181.96,162.19c-8.19,0-14.63,3.56-19.31,10.68l-1.76-9.07h-20.05v72.28h22.97v-35.12c0-6.05,1.41-10.63,4.24-13.75,2.83-3.12,6.68-4.68,11.56-4.68,1.95,0,3.8.29,5.56.88,1.76.59,3.66,1.51,5.71,2.78l9.66-16.83c-2.44-2.34-5.32-4.12-8.63-5.34-3.32-1.22-6.63-1.83-9.95-1.83Z"/>
      <path class="cls-1" d="M274.55,180.19c-3.22-5.66-7.85-10.07-13.9-13.24-6.05-3.17-13.07-4.76-21.07-4.76s-15,1.59-21,4.76c-6,3.17-10.61,7.59-13.83,13.24-3.22,5.66-4.83,12.24-4.83,19.75s1.61,14.1,4.83,19.75c3.22,5.66,7.83,10.07,13.83,13.24,6,3.17,13,4.76,21,4.76s15.02-1.59,21.07-4.76c6.05-3.17,10.68-7.58,13.9-13.24,3.22-5.66,4.83-12.24,4.83-19.75s-1.61-14.09-4.83-19.75Z"/>
    </g>
    <path class="cls-1" d="M393.34,272.68c3.22,5.66,7.83,10.07,13.83,13.24,6,3.17,13,4.76,21,4.76s15.02-1.59,21.07-4.76c6.05-3.17,10.68-7.58,13.9-13.24,3.22-5.66,4.83-12.24,4.83-19.75,0-.22-.01-.42-.02-.64h-79.42c0,.21-.02.42-.02.64,0,7.51,1.61,14.1,4.83,19.75Z"/>
  </g>
</svg>