<?xml version="1.0" encoding="UTF-8"?>
<svg id="Calque_1" data-name="Calque 1" xmlns="http://www.w3.org/2000/svg" viewBox="0 0 1000 187.3">
  <defs>
    <style>
      .cls-1 {
        fill: #039;
        stroke-width: 0px;
      }
    </style>
  </defs>
  <path class="cls-1" d="M112.46,9.26C103.11,3.64,92.46.82,80.51.82c-17.66,0-31.86,5.89-42.59,17.66l-2.6-15.06H0v183.89h40.78v-68.05c10.56,10.05,23.8,15.06,39.74,15.06,11.95,0,22.6-2.81,31.95-8.44,9.35-5.63,16.62-13.5,21.82-23.64,5.19-10.13,7.79-21.68,7.79-34.67s-2.6-24.54-7.79-34.67c-5.19-10.13-12.47-18.01-21.82-23.64ZM92.98,91.07c-5.71,5.97-13.08,8.96-22.08,8.96s-16.32-3.03-21.95-9.09c-5.63-6.06-8.44-13.85-8.44-23.38s2.81-17.31,8.44-23.37c5.63-6.06,12.94-9.09,21.95-9.09s16.36,2.99,22.08,8.96c5.71,5.97,8.57,13.81,8.57,23.5s-2.86,17.53-8.57,23.51Z"/>
  <path class="cls-1" d="M230.62.56c-14.54,0-25.97,6.32-34.28,18.96l-3.12-16.1h-35.58v128.3h40.78v-62.33c0-10.73,2.51-18.87,7.53-24.41,5.02-5.54,11.86-8.31,20.52-8.31,3.46,0,6.75.52,9.87,1.56,3.12,1.04,6.49,2.69,10.13,4.94l17.14-29.87c-4.33-4.15-9.44-7.31-15.32-9.48-5.89-2.16-11.78-3.25-17.66-3.25Z"/>
  <path class="cls-1" d="M518.89,63.67c-9.61-6.92-23.6-11.08-41.95-12.46-6.41-.69-10.95-1.73-13.64-3.11-2.69-1.39-4.03-3.38-4.03-5.98,0-6.23,6.58-9.35,19.74-9.35s24.84,2.77,34.54,8.31l15.84-27.27c-6.58-4.32-14.41-7.7-23.5-10.13-9.09-2.42-18.66-3.64-28.7-3.64-17.66,0-31.69,3.77-42.08,11.3-10.39,7.53-15.58,17.71-15.58,30.52,0,11.78,4.8,21.3,14.41,28.57,9.61,7.27,22.55,11.34,38.83,12.21,7.27.52,12.47,1.56,15.58,3.12,3.12,1.56,4.68,3.89,4.68,7.01,0,6.06-5.63,9.09-16.88,9.09-8.14,0-16.32-1.04-24.54-3.11-8.23-2.08-15.45-5.02-21.69-8.83l-15.58,28.05c16.79,11.43,36.53,17.14,59.22,17.14,18.7,0,33.33-3.77,43.89-11.3,10.56-7.53,15.84-17.88,15.84-31.03,0-12.47-4.8-22.16-14.41-29.09Z"/>
  <path class="cls-1" d="M663.75,9.26c-9.35-5.62-20.01-8.44-31.95-8.44-17.66,0-31.86,5.89-42.6,17.66l-2.6-15.06h-35.32v183.89h40.77v-68.05c10.56,10.05,23.8,15.06,39.74,15.06,11.94,0,22.6-2.81,31.95-8.44,9.35-5.63,16.62-13.5,21.81-23.64,5.2-10.13,7.79-21.68,7.79-34.67s-2.6-24.54-7.79-34.67c-5.19-10.13-12.46-18.01-21.81-23.64ZM644.27,91.07c-5.71,5.97-13.07,8.96-22.08,8.96s-16.33-3.03-21.95-9.09c-5.63-6.06-8.44-13.85-8.44-23.38s2.81-17.31,8.44-23.37c5.63-6.06,12.94-9.09,21.95-9.09s16.36,2.99,22.08,8.96c5.71,5.97,8.57,13.81,8.57,23.5s-2.85,17.53-8.57,23.51Z"/>
  <path class="cls-1" d="M814.64,8.48c-10.22-5.28-22.33-7.92-36.36-7.92s-25.71,2.82-36.1,8.44c-10.39,5.63-18.49,13.55-24.28,23.76-5.8,10.22-8.7,21.91-8.7,35.06s2.94,25.54,8.83,35.58c5.88,10.04,14.29,17.79,25.2,23.24,10.91,5.46,23.8,8.18,38.7,8.18,11.25,0,21.85-1.82,31.82-5.45,9.95-3.63,18.57-8.83,25.84-15.58l-21.3-22.85c-4.33,3.46-9.52,6.15-15.58,8.05-6.06,1.91-12.3,2.86-18.7,2.86-9.18,0-16.71-2.03-22.6-6.1-5.89-4.07-9.44-9.39-10.65-15.97h94.28c.86-6.06,1.3-11.17,1.3-15.32,0-12.81-2.73-24.03-8.18-33.63-5.46-9.61-13.29-17.05-23.51-22.34ZM751.01,56.4c.69-7.44,3.59-13.25,8.7-17.4,5.11-4.15,11.73-6.23,19.87-6.23s14.93,2.08,19.87,6.23c4.93,4.15,7.66,9.96,8.18,17.4h-56.62Z"/>
  <path class="cls-1" d="M394.97,32.51c-5.71-10.04-13.94-17.88-24.68-23.51-10.74-5.63-23.2-8.44-37.4-8.44s-26.62,2.82-37.27,8.44c-10.65,5.63-18.83,13.46-24.54,23.51-5.71,10.04-8.57,21.73-8.57,35.06s2.86,25.02,8.57,35.06c5.71,10.04,13.9,17.88,24.54,23.5,10.65,5.63,23.07,8.44,37.27,8.44s26.66-2.82,37.4-8.44c10.73-5.62,18.96-13.46,24.68-23.5,5.71-10.04,8.57-21.73,8.57-35.06s-2.86-25.02-8.57-35.06Z"/>
  <path class="cls-1" d="M867.54,36.2c5.71,10.04,13.9,17.88,24.54,23.5,10.65,5.63,23.07,8.44,37.27,8.44s26.66-2.82,37.4-8.44c10.74-5.62,18.96-13.46,24.68-23.5,5.71-10.04,8.57-21.73,8.57-35.06,0-.38-.03-.75-.03-1.13h-140.97c0,.38-.03.75-.03,1.13,0,13.34,2.86,25.02,8.57,35.06Z"/>
</svg>